<svg id="Layer_1" data-name="Layer 1" xmlns="http://www.w3.org/2000/svg" viewBox="0 0 410.76 105.96"><defs><style>.cls-1{fill:#356cdd;}.cls-2{fill:#fff;}.cls-3{fill:#c0e1fe;}</style></defs><path class="cls-1" d="M329.13,238.8H222.66a75,75,0,0,0,0,106H329.13a75,75,0,0,0,0-106Z" transform="translate(-197.01 -238.8)"/><path class="cls-1" d="M354.78,270.54V252.05a13.29,13.29,0,0,0-13.25-13.25H338A81.63,81.63,0,0,1,354.78,270.54Z" transform="translate(-197.01 -238.8)"/><path class="cls-1" d="M197,313v18.49a13.28,13.28,0,0,0,13.25,13.24h3.51A81.52,81.52,0,0,1,197,313Z" transform="translate(-197.01 -238.8)"/><path class="cls-1" d="M213.77,238.8h-3.51A13.29,13.29,0,0,0,197,252.05v18.49A81.63,81.63,0,0,1,213.77,238.8Z" transform="translate(-197.01 -238.8)"/><path class="cls-1" d="M338,344.76h3.51a13.29,13.29,0,0,0,13.25-13.24V313A81.52,81.52,0,0,1,338,344.76Z" transform="translate(-197.01 -238.8)"/><path class="cls-2" d="M275.84,290.75H262.4A10.68,10.68,0,0,1,252,280.25a10.13,10.13,0,0,1,10.41-10l22.08,0,9-20.18-31.18,0a30.06,30.06,0,0,0-30.56,30c.06,16.64,13.91,30.39,30.78,30.56l4.92.05,8.42-19.91Z" transform="translate(-197.01 -238.8)"/><path class="cls-2" d="M349.53,333.78a1.89,1.89,0,0,1,1.94,2,1.92,1.92,0,0,1-1.94,2,1.88,1.88,0,0,1-1.94-2A1.92,1.92,0,0,1,349.53,333.78Zm0,3.69a1.58,1.58,0,0,0,1.61-1.7,1.62,1.62,0,0,0-1.63-1.7,1.58,1.58,0,0,0-1.61,1.69A1.63,1.63,0,0,0,349.54,337.47Zm-.75-2.53a.18.18,0,0,1,.19-.2h.62c.51,0,.79.2.79.63a.59.59,0,0,1-.61.61l.57.66s-.06.15-.19.15a.29.29,0,0,1-.24-.13l-.52-.65h-.26v.61c0,.1-.05.17-.15.17h-.05c-.1,0-.15-.07-.15-.19Zm.82.77c.28,0,.43-.13.43-.34s-.16-.33-.45-.33h-.45v.67Z" transform="translate(-197.01 -238.8)"/><path class="cls-3" d="M275.85,290.73h13.37c5.7,0,10.87,3.92,10.86,9.62a10.54,10.54,0,0,1-10.47,10.42l-22.19-.1-9.05,21.2,30.84,0a30.82,30.82,0,0,0,.22-61.63H284.5l-8.61,20.39Z" transform="translate(-197.01 -238.8)"/><path class="cls-2" d="M402.94,297.61a2.71,2.71,0,0,0-1.06-2.3,13.77,13.77,0,0,0-3.79-1.68,26.78,26.78,0,0,1-4.34-1.75q-4.37-2.36-4.36-6.35a6.19,6.19,0,0,1,1.17-3.7,7.58,7.58,0,0,1,3.35-2.54,12.65,12.65,0,0,1,4.92-.91,11.53,11.53,0,0,1,4.88,1,7.75,7.75,0,0,1,3.33,2.81,7.31,7.31,0,0,1,1.19,4.11H403a3.44,3.44,0,0,0-1.11-2.73,4.52,4.52,0,0,0-3.11-1,4.85,4.85,0,0,0-3,.82,2.58,2.58,0,0,0-1.07,2.15,2.46,2.46,0,0,0,1.26,2.09,14.08,14.08,0,0,0,3.7,1.58,16.11,16.11,0,0,1,6.55,3.36,6.7,6.7,0,0,1,2.06,5,6.18,6.18,0,0,1-2.51,5.22,11,11,0,0,1-6.77,1.89,13.09,13.09,0,0,1-5.38-1.09,8.45,8.45,0,0,1-3.7-3,7.56,7.56,0,0,1-1.27-4.36h5.29c0,2.83,1.68,4.24,5.06,4.24a4.91,4.91,0,0,0,2.93-.77A2.47,2.47,0,0,0,402.94,297.61Z" transform="translate(-197.01 -238.8)"/><path class="cls-2" d="M420.22,304.68a9.33,9.33,0,0,1-6.81-2.57,9.13,9.13,0,0,1-2.63-6.84v-.49a11.51,11.51,0,0,1,1.11-5.13,8.14,8.14,0,0,1,3.13-3.48,8.88,8.88,0,0,1,4.64-1.22,7.88,7.88,0,0,1,6.14,2.46q2.24,2.46,2.24,7v2.08H415.93a4.67,4.67,0,0,0,1.49,3,4.47,4.47,0,0,0,3.13,1.13,5.48,5.48,0,0,0,4.59-2.13l2.5,2.8a7.59,7.59,0,0,1-3.1,2.52A10.19,10.19,0,0,1,420.22,304.68Zm-.58-15.63a3.16,3.16,0,0,0-2.45,1A5.34,5.34,0,0,0,416,293h7.07v-.4a3.73,3.73,0,0,0-.92-2.62A3.24,3.24,0,0,0,419.64,289.05Z" transform="translate(-197.01 -238.8)"/><path class="cls-2" d="M438.83,300.58a3.37,3.37,0,0,0,2.29-.77,2.7,2.7,0,0,0,.91-2.06h4.77a6.5,6.5,0,0,1-1.06,3.54,7,7,0,0,1-2.84,2.5,8.88,8.88,0,0,1-4,.89,8.25,8.25,0,0,1-6.43-2.6,10.25,10.25,0,0,1-2.36-7.16v-.33a10.16,10.16,0,0,1,2.34-7,8.19,8.19,0,0,1,6.42-2.62,8,8,0,0,1,5.72,2,7.26,7.26,0,0,1,2.19,5.41H442a3.43,3.43,0,0,0-.91-2.41,3.4,3.4,0,0,0-5,.36,7.43,7.43,0,0,0-.91,4.2v.53a7.53,7.53,0,0,0,.9,4.22A3.1,3.1,0,0,0,438.83,300.58Z" transform="translate(-197.01 -238.8)"/><path class="cls-2" d="M461.09,302.39a6.4,6.4,0,0,1-5.21,2.29,6,6,0,0,1-4.66-1.76,7.55,7.55,0,0,1-1.65-5.15V285.3h5.08v12.31c0,2,.91,3,2.71,3a3.66,3.66,0,0,0,3.55-1.8V285.3H466v19h-4.78Z" transform="translate(-197.01 -238.8)"/><path class="cls-2" d="M480.53,290.07a12.79,12.79,0,0,0-1.83-.14q-2.88,0-3.78,1.95v12.44h-5.08v-19h4.8l.14,2.27A4.72,4.72,0,0,1,479,285a5.39,5.39,0,0,1,1.58.23Z" transform="translate(-197.01 -238.8)"/><path class="cls-2" d="M482.94,280.38a2.49,2.49,0,0,1,.76-1.88,3.29,3.29,0,0,1,4.16,0,2.69,2.69,0,0,1,0,3.78,3.25,3.25,0,0,1-4.13,0A2.49,2.49,0,0,1,482.94,280.38Zm5.39,23.94h-5.09v-19h5.09Z" transform="translate(-197.01 -238.8)"/><path class="cls-2" d="M498.6,280.63v4.67h3.25V289H498.6v9.49A2.24,2.24,0,0,0,499,300a2,2,0,0,0,1.55.46,8.25,8.25,0,0,0,1.49-.12v3.85a10.57,10.57,0,0,1-3.07.46q-5.34,0-5.45-5.4V289h-2.78V285.3h2.78v-4.67Z" transform="translate(-197.01 -238.8)"/><path class="cls-2" d="M511.78,297.13l3.52-11.83h5.45l-7.65,22-.42,1a5.8,5.8,0,0,1-5.63,3.72,8.17,8.17,0,0,1-2.25-.33v-3.85l.78,0a4.19,4.19,0,0,0,2.15-.44,2.85,2.85,0,0,0,1.12-1.46l.6-1.56-6.67-19.08h5.47Z" transform="translate(-197.01 -238.8)"/><path class="cls-2" d="M532.05,304.32V278.73h9c3.1,0,5.46.59,7.06,1.78a6.1,6.1,0,0,1,2.41,5.23,5.76,5.76,0,0,1-1,3.32,5.61,5.61,0,0,1-2.69,2.1,5.44,5.44,0,0,1,3.11,2,5.93,5.93,0,0,1,1.13,3.66,6.74,6.74,0,0,1-2.36,5.59c-1.57,1.27-3.8,1.91-6.71,1.93Zm5.27-14.87h3.91q4-.06,4-3.18a2.94,2.94,0,0,0-1-2.5A5.33,5.33,0,0,0,541,283h-3.7Zm0,3.73v6.91h4.52a4.38,4.38,0,0,0,2.91-.89,3,3,0,0,0,1-2.45c0-2.35-1.22-3.54-3.64-3.57Z" transform="translate(-197.01 -238.8)"/><path class="cls-2" d="M565.38,290.07a12.79,12.79,0,0,0-1.83-.14q-2.88,0-3.78,1.95v12.44h-5.08v-19h4.8l.14,2.27a4.72,4.72,0,0,1,4.24-2.62,5.39,5.39,0,0,1,1.58.23Z" transform="translate(-197.01 -238.8)"/><path class="cls-2" d="M567.79,280.38a2.49,2.49,0,0,1,.76-1.88,3.29,3.29,0,0,1,4.16,0,2.69,2.69,0,0,1,0,3.78,3.25,3.25,0,0,1-4.13,0A2.49,2.49,0,0,1,567.79,280.38Zm5.39,23.94h-5.09v-19h5.09Z" transform="translate(-197.01 -238.8)"/><path class="cls-2" d="M586.12,304.68a9.33,9.33,0,0,1-6.81-2.57,9.13,9.13,0,0,1-2.63-6.84v-.49a11.51,11.51,0,0,1,1.11-5.13,8.17,8.17,0,0,1,3.14-3.48,8.82,8.82,0,0,1,4.63-1.22,7.88,7.88,0,0,1,6.14,2.46c1.5,1.64,2.24,4,2.24,7v2.08H581.83a4.72,4.72,0,0,0,1.49,3,4.48,4.48,0,0,0,3.14,1.13,5.47,5.47,0,0,0,4.58-2.13l2.5,2.8a7.56,7.56,0,0,1-3.09,2.52A10.27,10.27,0,0,1,586.12,304.68Zm-.58-15.63a3.18,3.18,0,0,0-2.45,1,5.34,5.34,0,0,0-1.21,2.93H589v-.4A3.77,3.77,0,0,0,588,290,3.28,3.28,0,0,0,585.54,289.05Z" transform="translate(-197.01 -238.8)"/><path class="cls-2" d="M598.21,304.32V289h-2.83V285.3h2.83v-1.61a6.59,6.59,0,0,1,1.84-5,7.12,7.12,0,0,1,5.14-1.77,11.61,11.61,0,0,1,2.59.36l-.06,3.93a6.74,6.74,0,0,0-1.54-.15c-1.91,0-2.87.89-2.87,2.68v1.53h3.78V289h-3.78v15.29Z" transform="translate(-197.01 -238.8)"/></svg>